<svg width="30" height="30" viewBox="0 0 30 30" fill="none" xmlns="http://www.w3.org/2000/svg">
<path fill-rule="evenodd" clip-rule="evenodd" d="M9.33113 1.33241C10.7974 1.26491 11.2649 1.24991 14.9999 1.24991C18.7349 1.24991 19.2024 1.26616 20.6674 1.33241C22.1324 1.39866 23.1324 1.63241 24.0074 1.97116C24.9236 2.31741 25.7549 2.85866 26.4424 3.55866C27.1424 4.24491 27.6824 5.07491 28.0274 5.99241C28.3674 6.86741 28.5999 7.86741 28.6674 9.32991C28.7349 10.7987 28.7499 11.2662 28.7499 14.9999C28.7499 18.7349 28.7336 19.2024 28.6674 20.6687C28.6011 22.1312 28.3674 23.1312 28.0274 24.0062C27.6824 24.9238 27.1415 25.7552 26.4424 26.4424C25.7549 27.1424 24.9236 27.6824 24.0074 28.0274C23.1324 28.3674 22.1324 28.5999 20.6699 28.6674C19.2024 28.7349 18.7349 28.7499 14.9999 28.7499C11.2649 28.7499 10.7974 28.7337 9.33113 28.6674C7.86863 28.6012 6.86863 28.3674 5.99363 28.0274C5.07603 27.6824 4.24465 27.1415 3.55738 26.4424C2.85785 25.7557 2.31652 24.9248 1.97113 24.0074C1.63238 23.1324 1.39988 22.1324 1.33238 20.6699C1.26488 19.2012 1.24988 18.7337 1.24988 14.9999C1.24988 11.2649 1.26613 10.7974 1.33238 9.33241C1.39863 7.86741 1.63238 6.86741 1.97113 5.99241C2.31703 5.07501 2.85878 4.24405 3.55863 3.55741C4.24493 2.85804 5.07547 2.31671 5.99238 1.97116C6.86738 1.63241 7.86738 1.39991 9.32988 1.33241H9.33113ZM20.5561 3.80741C19.1061 3.74116 18.6711 3.72741 14.9999 3.72741C11.3286 3.72741 10.8936 3.74116 9.44363 3.80741C8.10238 3.86866 7.37488 4.09241 6.88988 4.28116C6.24863 4.53116 5.78988 4.82741 5.30863 5.30866C4.85243 5.75247 4.50135 6.29276 4.28113 6.88991C4.09238 7.37491 3.86863 8.10241 3.80738 9.44366C3.74113 10.8937 3.72738 11.3287 3.72738 14.9999C3.72738 18.6712 3.74113 19.1062 3.80738 20.5562C3.86863 21.8974 4.09238 22.6249 4.28113 23.1099C4.50113 23.7062 4.85238 24.2474 5.30863 24.6912C5.75238 25.1474 6.29363 25.4987 6.88988 25.7187C7.37488 25.9074 8.10238 26.1312 9.44363 26.1924C10.8936 26.2587 11.3274 26.2724 14.9999 26.2724C18.6724 26.2724 19.1061 26.2587 20.5561 26.1924C21.8974 26.1312 22.6249 25.9074 23.1099 25.7187C23.7511 25.4687 24.2099 25.1724 24.6911 24.6912C25.1474 24.2474 25.4986 23.7062 25.7186 23.1099C25.9074 22.6249 26.1311 21.8974 26.1924 20.5562C26.2586 19.1062 26.2724 18.6712 26.2724 14.9999C26.2724 11.3287 26.2586 10.8937 26.1924 9.44366C26.1311 8.10241 25.9074 7.37491 25.7186 6.88991C25.4686 6.24866 25.1724 5.78991 24.6911 5.30866C24.2473 4.8525 23.707 4.50142 23.1099 4.28116C22.6249 4.09241 21.8974 3.86866 20.5561 3.80741ZM13.2436 19.2387C14.2245 19.6469 15.3166 19.7021 16.3335 19.3946C17.3505 19.0871 18.2291 18.4361 18.8194 17.5527C19.4097 16.6694 19.6749 15.6085 19.5699 14.5513C19.4649 13.4941 18.9961 12.5061 18.2436 11.7562C17.7639 11.2768 17.1839 10.9097 16.5453 10.6813C15.9067 10.453 15.2254 10.3691 14.5505 10.4357C13.8756 10.5022 13.2238 10.7176 12.6421 11.0663C12.0604 11.415 11.5633 11.8883 11.1865 12.4522C10.8097 13.0161 10.5626 13.6565 10.463 14.3274C10.3634 14.9982 10.4138 15.6828 10.6106 16.3318C10.8073 16.9808 11.1455 17.5782 11.6008 18.0808C12.0561 18.5835 12.6172 18.9789 13.2436 19.2387ZM10.0024 10.0024C10.6587 9.34613 11.4378 8.82554 12.2953 8.47036C13.1527 8.11518 14.0718 7.93238 14.9999 7.93238C15.928 7.93238 16.847 8.11518 17.7045 8.47036C18.562 8.82554 19.3411 9.34613 19.9974 10.0024C20.6537 10.6587 21.1743 11.4378 21.5294 12.2953C21.8846 13.1528 22.0674 14.0718 22.0674 14.9999C22.0674 15.928 21.8846 16.8471 21.5294 17.7045C21.1743 18.562 20.6537 19.3411 19.9974 19.9974C18.672 21.3228 16.8743 22.0674 14.9999 22.0674C13.1255 22.0674 11.3278 21.3228 10.0024 19.9974C8.67696 18.672 7.93235 16.8743 7.93235 14.9999C7.93235 13.1255 8.67696 11.3278 10.0024 10.0024ZM23.6349 8.98491C23.7975 8.8315 23.9277 8.64701 24.0178 8.44238C24.1078 8.23774 24.1559 8.01712 24.1592 7.79357C24.1624 7.57002 24.1208 7.34809 24.0367 7.14092C23.9527 6.93375 23.8279 6.74555 23.6698 6.58746C23.5117 6.42937 23.3235 6.30461 23.1164 6.22056C22.9092 6.13651 22.6873 6.09488 22.4637 6.09814C22.2402 6.1014 22.0195 6.14948 21.8149 6.23953C21.6103 6.32958 21.4258 6.45978 21.2724 6.62241C20.974 6.9387 20.8107 7.35881 20.817 7.79357C20.8233 8.22833 20.9989 8.64351 21.3063 8.95096C21.6138 9.25842 22.029 9.43394 22.4637 9.44028C22.8985 9.44662 23.3186 9.28327 23.6349 8.98491Z" fill="white" fill-opacity="0.69"/>
</svg>
