<svg width="30" height="30" viewBox="0 0 30 30" fill="none" xmlns="http://www.w3.org/2000/svg">
<path d="M0 13.5C0 19.2634 3.61238 24.1841 8.69625 26.1203C8.5725 25.0661 8.44088 23.328 8.72437 22.1085C8.9685 21.06 10.3005 15.4282 10.3005 15.4282C10.3005 15.4282 9.89887 14.6239 9.89887 13.4325C9.89887 11.565 10.9811 10.17 12.33 10.17C13.4775 10.17 14.031 11.0306 14.031 12.0623C14.031 13.2154 13.2964 14.9389 12.9173 16.5375C12.6011 17.8751 13.5889 18.9664 14.9074 18.9664C17.2957 18.9664 19.1329 16.4475 19.1329 12.8115C19.1329 9.59287 16.8199 7.344 13.518 7.344C9.69525 7.344 7.45088 10.2116 7.45088 13.176C7.45088 14.3314 7.89525 15.5689 8.451 16.2428C8.49838 16.2936 8.53186 16.3559 8.54821 16.4235C8.56457 16.491 8.56324 16.5617 8.54437 16.6286C8.442 17.0539 8.21475 17.9662 8.17087 18.153C8.11125 18.3983 7.97625 18.4511 7.72087 18.3319C6.04238 17.5511 4.99388 15.0975 4.99388 13.1265C4.99388 8.88638 8.073 4.99388 13.8724 4.99388C18.5344 4.99388 22.158 8.316 22.158 12.7552C22.158 17.3869 19.2386 21.1151 15.1841 21.1151C13.8217 21.1151 12.5426 20.4064 12.1039 19.5705C12.1039 19.5705 11.43 22.1378 11.2669 22.7655C10.9496 23.985 10.0699 25.5285 9.52425 26.4049C10.782 26.7919 12.1163 27 13.5 27C20.9554 27 27 20.9554 27 13.5C27 6.04463 20.9554 0 13.5 0C6.04463 0 0 6.04463 0 13.5Z" fill="white" fill-opacity="0.69"/>
</svg>
